# xmcd
#
# Track frame offsets: 
#        150
#        12222
#        19265
#        54415
#        67210
#        85814
#        113497
#        132236
#        168373
#        190273
#
# Disc length: 2957 seconds
#
# Revision: 1
# Processed by: cddbd v1.5.2PL0 Copyright (c) Steve Scherf et al.
# Submitted via: ExactAudioCopyFreeDBPlugin 1.0
#
DISCID=7e0b8b0a
DTITLE=Frank Marino and Mahogany Rush - The Return of the Big Two
DYEAR=1983
DGENRE=Blues
TTITLE0=Who Do You Love
TTITLE1=Drum Solo
TTITLE2=Free
TTITLE3=Johnny B Goode
TTITLE4=Jugernaut
TTITLE5=Maybe its Time
TTITLE6=Midnight Highway
TTITLE7=Poppy
TTITLE8=Somethings Coming Our Way
TTITLE9=Strange Dreams
EXTD=
EXTT0=
EXTT1=
EXTT2=
EXTT3=
EXTT4=
EXTT5=
EXTT6=
EXTT7=
EXTT8=
EXTT9=
PLAYORDER=
